<svg xmlns="http://www.w3.org/2000/svg" width="47.74" height="40" viewBox="0 0 47.74 40"><defs><style>.a{fill:#fff;}.a,.b,.c{fill-rule:evenodd;}.b{fill:#092a60;}.c{fill:#ed6a12;}</style></defs><g transform="translate(0 0.031)"><g transform="translate(0 -0.031)"><path class="a" d="M55.252,40.019a10.228,10.228,0,0,1-3.845,1.4l7.129,8.932H49.085L46.5,47.137a.1.1,0,0,0,.058-.019L37.553,35.628h7.878a10.308,10.308,0,0,0,2.4-.273,5.087,5.087,0,0,0,1.957-.881,4.31,4.31,0,0,0,1.3-1.611,5.618,5.618,0,0,0,.45-2.415,5,5,0,0,0-.488-2.326,4.2,4.2,0,0,0-1.323-1.538,5.652,5.652,0,0,0-1.923-.854,9.455,9.455,0,0,0-2.276-.273H42.071l-5,.038L30.64,17.315l14.015-.035h2.961a23.9,23.9,0,0,1,2.961.292,13.969,13.969,0,0,1,2.841.788,10.581,10.581,0,0,1,2.592,1.5l.073.054.065.054h0a.246.246,0,0,1,.058.05h0l.054.046h0l.054.042h0l.05.054h0l.05.042h0l.042.038h.027l.065.065.05.046.15.154.031.023.035.042.027.023.023.027.035.035.1.1.031.035.035.038.062.069h0l.062.062h0l.05.05h0l.031.031.031.035c.231.269.446.542.654.819h0c0,.023.035.05.058.073a11.85,11.85,0,0,1,1.265,2.261,13.923,13.923,0,0,1,1.215,5.629,13.338,13.338,0,0,1-.608,4.041A11.431,11.431,0,0,1,58.1,37.363a10.381,10.381,0,0,1-1,1.154.308.308,0,0,0-.05.05l-.027.027h-.023l-.027.023-.027.023-.015.065h-.038l-.031.031h0l-.031.027-.027.023-.023.023h0l-.023.023h0l-.031.027h0l-.042.035h0l-.038.031h0l-.031.027h0l-.042.035h0l-.035.031h0l-.138.112-.046.038h0a1.322,1.322,0,0,0-.138.108h0l-.054.038c-.065.05-.131.092-.2.146l-.05.035h0l-.046.035-.1.069h0l-.046.031h0l-.038.031h0l-.154.1h0l-.112.065Z" transform="translate(-18.859 -10.624)"/><path class="b" d="M46.074,31.06l-.088-.131c8.54-6.425,7.306-21.309-3.914-23.8A18.671,18.671,0,0,0,8.7,18.664c0,.338,0,.669.031,1,.019.423.054.842.108,1.25A18.679,18.679,0,0,0,27.375,37.343a12.706,12.706,0,0,0,1.434-.054c.342-.027.692-.062,1.027-.108a18.9,18.9,0,0,0,3.164-.7.384.384,0,0,0,.062-.019L24.053,24.974h7.878a10.332,10.332,0,0,0,2.4-.273,5.183,5.183,0,0,0,1.953-.881,4.353,4.353,0,0,0,1.3-1.615,5.6,5.6,0,0,0,.45-2.407,5,5,0,0,0-.488-2.307,4.23,4.23,0,0,0-1.323-1.538A5.652,5.652,0,0,0,34.3,15.1a9.474,9.474,0,0,0-2.276-.269H28.567l-5,.035L17.14,6.66l14.011-.035h2.965a23.182,23.182,0,0,1,2.961.292,14.038,14.038,0,0,1,2.841.788,10.712,10.712,0,0,1,2.592,1.5l.069.058.065.054h0a.334.334,0,0,1,.058.05h0l.054.046h0l.05.046h.023l.05.05h0l.05.046h0l.042.038h.023l.065.065.05.046.154.15.031.027.035.038.023.027.027.023.035.035.1.1.031.035.038.035.058.073h0l.062.058h0l.05.054h0l.031.027.031.038c.231.265.45.542.657.815h0a.55.55,0,0,0,.054.077,11.535,11.535,0,0,1,1.265,2.261,13.934,13.934,0,0,1,1.154,5.568,13.208,13.208,0,0,1-.611,4.041,11.293,11.293,0,0,1-1.784,3.461,10.078,10.078,0,0,1-1,1.154.331.331,0,0,0-.05.054l-.027.023-.027.023h-.023l.042.142h-.027l-.027.027-.031.031h-.023l-.027.023-.027.027h-.05l-.031.023h0l-.038.035h0l-.038.031h0l-.031.023h0l-.073.165h0L43,28.465h0l-.135.108-.046.042h0l-.142.108h0l-.05.035-.2.146-.054.038h0l-.042.035-.1.069h0l-.042.031h0l-.042.031h0c-.05.031-.1.065-.158.1h0l-.108.065-.05.031a10.228,10.228,0,0,1-3.845,1.4l7.129,8.936.058.073h7.921Z" transform="translate(-5.355 0.031)"/><path class="c" d="M9.39,17.41,22.347,34.04H13.388L26.711,50.7,1.953,30.4l8.482.027L0,17.441Z" transform="translate(0 -10.704)"/></g></g></svg>