<svg xmlns="http://www.w3.org/2000/svg" width="250" height="58.291" viewBox="0 0 250 58.291"><defs><style>.a{fill:#fff;}</style></defs><g transform="translate(0 0.022)"><g transform="translate(0 -0.022)"><path class="a" d="M10.4,22.235,1.588,11.34A27.412,27.412,0,0,0,0,20.71c0,.508,0,.985,0,1.477H0Z" transform="translate(0 6.706)"/><path class="a" d="M27.3,43.423h2.1L.13,19.33A27.4,27.4,0,0,0,27.3,43.423Z" transform="translate(0.077 11.405)"/><path class="a" d="M52.313,45.4C64.844,35.97,63.049,14.148,46.58,10.463A27.381,27.381,0,0,0,4,9.828H6.509L25.568,34.223H12.37L28.633,54.568a26.841,26.841,0,0,0,4.638-1.032h.1L20.152,36.685H31.714a15.342,15.342,0,0,0,3.51-.4A7.449,7.449,0,0,0,38.1,34.954,6.146,6.146,0,0,0,40,32.587a8.29,8.29,0,0,0,.683-3.51,7.465,7.465,0,0,0-.715-3.415,6.194,6.194,0,0,0-1.938-2.255,8.163,8.163,0,0,0-2.843-1.255,13.786,13.786,0,0,0-3.335-.4H19.421l-9.4-11.943H34.906a33.352,33.352,0,0,1,4.352.429,21.282,21.282,0,0,1,4.161,1.144,15.739,15.739,0,0,1,3.8,2.16l.111.079h.1l.079.079h.159l.079.079h0l.1.1h.079l.222.222h0l.143.143h0l.191.191h0v.079l.111.111c.334.4.651.794.953,1.207v.111a16.93,16.93,0,0,1,1.858,3.3,20.647,20.647,0,0,1,1.683,8.179,19.773,19.773,0,0,1-.889,5.924,16.882,16.882,0,0,1-2.621,5.1,14.611,14.611,0,0,1-1.477,1.588h0l.381,1.271h0l-.206.159h0l-.206.159h-.079l-.286.222h-.079l-.143.111H47.39l-.985.937-.159.1h-.079a14.882,14.882,0,0,1-5.638,2.065l10.45,13.1.1.111H62.764L52.52,45.563Z" transform="translate(2.353 0.022)"/><path class="a" d="M63.852,19.336a7.941,7.941,0,0,0,4.653-2.446,7,7,0,0,0,1.588-4.765,7.639,7.639,0,0,0-.81-3.558,7.052,7.052,0,0,0-2.319-2.652,8.958,8.958,0,0,0-3.176-1.3,35.957,35.957,0,0,0-6.528-.4H49.32V29.627h7.163v-9.99l6.353,9.926h8.608Zm-2.335-3.907a6.623,6.623,0,0,1-3.605.762H56.5V9.537h1.588a6.083,6.083,0,0,1,3.573.794,3.176,3.176,0,0,1,1.048,2.716A2.7,2.7,0,0,1,61.517,15.429Z" transform="translate(29.011 2.506)"/><path class="a" d="M87.724,26.561A13.2,13.2,0,0,0,90.9,22.273a12.372,12.372,0,0,0,1.112-5.13h0a11.943,11.943,0,0,0-1.064-5.114,13.119,13.119,0,0,0-3.176-4.288,14.993,14.993,0,0,0-4.908-2.875,16.724,16.724,0,0,0-11.483,0,14.77,14.77,0,0,0-4.765,2.875,13.071,13.071,0,0,0-3.335,4.288,11.9,11.9,0,0,0-1.112,5.13,11.753,11.753,0,0,0,1.112,5.1,12.976,12.976,0,0,0,3.272,4.3A15.088,15.088,0,0,0,71.429,29.5a16.47,16.47,0,0,0,5.749,1,16.215,16.215,0,0,0,5.654-1,15.691,15.691,0,0,0,4.892-2.938ZM77.115,24.592h0a6.988,6.988,0,0,1-5.273-2.1,7.353,7.353,0,0,1-2-5.352,7.353,7.353,0,0,1,2.081-5.32,7.036,7.036,0,0,1,5.241-2.128,7.115,7.115,0,0,1,5.225,2.128,7.306,7.306,0,0,1,2.1,5.32A7.258,7.258,0,0,1,82.4,22.48,6.972,6.972,0,0,1,77.115,24.592Z" transform="translate(36.569 2.3)"/><path class="a" d="M121.8,4.206h-9.529l-9.434,24.681-7.131-9.529a7.941,7.941,0,0,0,4.669-2.446,7.052,7.052,0,0,0,1.588-4.765,7.639,7.639,0,0,0-.81-3.558,7.052,7.052,0,0,0-2.319-2.684,8.957,8.957,0,0,0-3.176-1.3,35.877,35.877,0,0,0-6.528-.4H81.19V29.617h7.163V19.644l6.353,9.926h15.437l1.461-4.526h10.832l1.429,4.526h7.576ZM93.324,15.435a6.623,6.623,0,0,1-3.605.762H88.305V9.543h1.588a6.083,6.083,0,0,1,3.573.794,3.176,3.176,0,0,1,1.048,2.716,2.7,2.7,0,0,1-1.191,2.382ZM113.272,20.1l2.811-8.37c.159-.524.318-1.064.476-1.588s.334-1.159.492-1.779c.238.889.445,1.588.588,2.176s.286.985.365,1.239l2.843,8.37Z" transform="translate(47.757 2.5)"/><rect class="a" width="7.719" height="25.364" transform="translate(179.245 6.706)"/><path class="a" d="M170.907,4.2h-9.529l-9.529,24.967L147.624,4.2h-7.56l-4.272,13.039q-.365,1.159-.572,2a11.782,11.782,0,0,0-.286,1.493,15.374,15.374,0,0,0-.746-3l-.159-.445L129.82,4.2h-7.56l-4.32,25.411h7.1l1.588-10.959c.143-.937.254-1.874.365-2.811s.191-1.906.27-2.859a24.73,24.73,0,0,0,1.048,4c.111.334.175.588.238.746l3.78,11.832h5.082l3.8-11.88a4.087,4.087,0,0,1,.254-.746,29.3,29.3,0,0,0,1.048-4.018c.079,1.112.159,2.144.254,3.176s.206,1.811.318,2.589l1.588,10.959h14.659l1.461-4.526h10.832l1.413,4.526h7.592Zm-8.529,15.882,2.811-8.37c.159-.524.318-1.064.476-1.588s.334-1.159.492-1.779c.238.889.445,1.588.588,2.176s.286.985.365,1.239l2.859,8.37Z" transform="translate(69.374 2.506)"/><rect class="a" width="1.795" height="13.23" transform="translate(201.607 37.803)"/><path class="a" d="M139.24,23.78l-5.05,13.246h1.89l1.207-3.4h5.956l1.207,3.4h1.874l-5.05-13.246Zm-1.414,8.29,2.414-6.528,2.446,6.528Z" transform="translate(78.932 14.023)"/><path class="a" d="M64.885,30.72H71.19V29.212H64.885V25.289H71.46V23.78H63.09V37.026h8.529V35.517H64.885Z" transform="translate(37.11 14.023)"/><path class="a" d="M89.985,30.72H96.29V29.212H89.985V25.289H96.56V23.78H88.19V37.026h8.529V35.517H89.985Z" transform="translate(51.874 14.023)"/><path class="a" d="M83,34.866,77.144,23.8H74.73v13.23h1.747V25.94l5.86,11.086h2.414V23.78H83Z" transform="translate(43.957 14.023)"/><path class="a" d="M107.735,31.662a2.541,2.541,0,0,0-1.112-.842,2.938,2.938,0,0,0,1.683-1.144h0a3.558,3.558,0,0,0,.572-2.081,3.494,3.494,0,0,0-1.112-2.859,5.209,5.209,0,0,0-3.383-.953H100.35V37.03h1.779V31.424h1.954a2.89,2.89,0,0,1,1.683.445,4.765,4.765,0,0,1,1.271,1.763l1.684,3.4h1.938l-1.826-3.621a8.052,8.052,0,0,0-1.1-1.747Zm-3.351-1.7h-2.255V25.2h2.255a2.875,2.875,0,0,1,1.953.588A2.3,2.3,0,0,1,107,27.533a2.335,2.335,0,0,1-.667,1.763,2.891,2.891,0,0,1-1.985.667Z" transform="translate(59.027 14.018)"/><path class="a" d="M119.535,31.674h2.922v3.542a4.637,4.637,0,0,1-1.35.508h0a8.513,8.513,0,0,1-1.684.159,4.653,4.653,0,0,1-3.653-1.366,5.829,5.829,0,0,1-1.223-4.018,5.877,5.877,0,0,1,1.223-4.05,4.59,4.59,0,0,1,3.653-1.35,6.671,6.671,0,0,1,2.351.413,7.56,7.56,0,0,1,2.112,1.271V24.877a8.163,8.163,0,0,0-2.16-.937,9.784,9.784,0,0,0-2.462-.318,6.448,6.448,0,0,0-4.765,1.811,6.972,6.972,0,0,0-1.795,5.146,6.941,6.941,0,0,0,1.747,5.05,6.448,6.448,0,0,0,4.765,1.811,9.418,9.418,0,0,0,2.668-.381,7.64,7.64,0,0,0,2.287-1.112V30.2h-4.765Z" transform="translate(66.286 13.926)"/></g></g></svg>